<svg width="94" height="94" viewBox="0 0 94 94" fill="none" xmlns="http://www.w3.org/2000/svg">
<rect x="1" y="1" width="92" height="92" rx="46" stroke="#EBEBEB" stroke-width="2"/>
<path d="M46.5 71.3748C43.1344 71.3748 39.9693 70.7339 37.0046 69.4519C34.0399 68.1682 31.4606 66.4294 29.2669 64.2357C27.0713 62.0401 25.3326 59.46 24.0506 56.4953C22.7669 53.5305 22.125 50.3654 22.125 46.9998V31.0613C22.125 30.1405 22.5258 29.4851 23.3275 29.0951C24.1292 28.7051 24.8947 28.7773 25.6242 29.3117L36.6362 37.5884C37.7394 35.7792 38.9447 33.9231 40.2519 32.0201C41.5591 30.117 43.0017 28.1796 44.5798 26.208C45.0962 25.5544 45.7362 25.2366 46.5 25.2546C47.2638 25.2727 47.9047 25.5905 48.4229 26.208C49.9649 28.1814 51.3976 30.108 52.721 31.9876C54.0463 33.8671 55.2606 35.7341 56.3638 37.5884L67.3758 29.3117C68.1053 28.7737 68.8708 28.7014 69.6725 29.0951C70.4742 29.4887 70.875 30.1441 70.875 31.0613V46.9998C70.875 50.3654 70.234 53.5305 68.9521 56.4953C67.6683 59.46 65.9296 62.0392 63.7358 64.233C61.5403 66.4285 58.9601 68.1673 55.9954 69.4492C53.0307 70.733 49.8656 71.3748 46.5 71.3748ZM30.25 55.1248C30.25 53.0737 30.668 50.7689 31.504 48.2105C32.3381 45.6538 33.5822 42.8895 35.236 39.9176L24.8333 32.104V46.9998C24.8333 50.4448 25.5962 53.6109 27.1219 56.498C28.6476 59.3851 30.696 61.7576 33.2671 63.6155C32.3426 62.4689 31.6087 61.178 31.0652 59.7425C30.5217 58.3071 30.25 56.7679 30.25 55.1248ZM46.5 68.6665C50.2465 68.6665 53.4406 67.3457 56.0821 64.7042C58.7236 62.0627 60.0435 58.8696 60.0417 55.1248C60.0417 51.9362 58.8608 47.9153 56.4992 43.0619C54.1393 38.2086 50.8062 33.2018 46.5 28.0415C42.1956 33.2235 38.8625 38.2357 36.5008 43.0782C34.1392 47.9225 32.9583 51.938 32.9583 55.1248C32.9583 58.8714 34.2791 62.0654 36.9206 64.7069C39.5622 67.3485 42.7553 68.6683 46.5 68.6665ZM62.75 55.1248C62.75 56.7679 62.4783 58.3071 61.9348 59.7425C61.3913 61.178 60.6583 62.4689 59.7356 63.6155C62.3049 61.7557 64.3524 59.3832 65.8781 56.498C67.4038 53.6127 68.1667 50.4466 68.1667 46.9998V32.104L57.7667 39.9013C59.4187 42.8732 60.6628 45.6376 61.4987 48.1942C62.3329 50.7527 62.75 53.0629 62.75 55.1248Z" fill="white"/>
</svg>
