<svg width="94" height="94" viewBox="0 0 94 94" fill="none" xmlns="http://www.w3.org/2000/svg">
<rect x="1" y="1" width="92" height="92" rx="46" stroke="#EBEBEB" stroke-width="2"/>
<g clip-path="url(#clip0_149_990)">
<path d="M-1.49902 65.8164L2.0352 79.0063L11.8245 76.3833L-1.49902 65.8164Z" fill="white"/>
<path d="M42.5728 57.0426C49.7502 60.1588 57.3697 54.4864 57.0966 47.2662C57.8304 43.4335 55.4621 39.2819 51.8467 37.2099C49.4949 35.8705 46.6246 35.5179 44.0124 36.1943C33.7851 39.0323 32.9658 52.7467 42.5728 57.0426ZM41.1273 38.9664C45.0779 36.4039 50.6969 37.2554 53.8243 40.7318C55.3452 42.4348 56.4454 44.7675 56.0982 47.0944C55.5873 50.7121 52.052 53.3527 48.4986 53.52C45.4216 53.7598 42.5384 51.7897 41.6302 48.8433C40.4565 45.2418 42.9402 41.4977 46.8137 41.6845C50.3761 41.8232 52.17 47.029 48.5109 48.5081C47.5397 48.8753 46.4093 48.6774 45.7419 47.8703C45.1035 47.1037 44.9022 45.9374 45.5245 45.0755C45.8286 44.6425 46.3131 44.2962 46.9251 44.1506C46.9845 44.1374 46.9869 44.0471 46.9251 44.033C45.9158 43.7742 44.7252 44.4532 44.316 45.4461C43.5141 47.245 44.8635 49.4115 46.7339 49.7863C49.3649 50.3744 51.9301 48.0426 51.6708 45.378C51.1612 39.9973 44.4811 39.1711 41.653 43.3214C39.496 46.4184 40.8648 50.908 43.8933 52.8891C45.5229 54.0001 47.5687 54.3496 49.4967 54.0222C51.5696 53.6931 53.5694 52.6946 55.0171 51.1664C55.4384 50.7341 55.7931 50.281 56.0884 49.8134C56.0039 50.0363 55.8889 50.3372 55.8307 50.5064C53.737 55.5081 48.0158 58.0332 42.8849 56.2511C35.2496 53.5302 34.3309 43.2394 41.1273 38.9664ZM47.3595 14.8425C46.8008 14.3171 46.5634 13.5713 46.288 12.8794C46.2937 12.7322 46.652 13.2355 46.7094 13.2797C47.099 13.7074 47.3706 14.2348 47.4041 14.8224C47.4059 14.8453 47.3755 14.8592 47.3595 14.8425ZM47.6478 15.9267C47.7592 15.6433 48.0682 16.7915 48.1023 16.8931C48.411 17.9162 48.3774 19.0738 47.6985 19.9525C47.6725 19.9877 47.6126 19.9756 47.6025 19.933C47.224 18.581 47.695 17.2903 47.6478 15.9267ZM44.7304 29.6373C44.6952 28.7817 44.8957 27.9434 45.0796 27.1167C45.5845 25.0319 46.5645 23.0513 47.3155 21.0565C47.3419 20.9835 47.4634 21.0106 47.4481 21.092C47.2768 22.1532 47.0002 23.1933 46.7669 24.2322C46.3933 25.8348 45.9737 27.5428 46.1415 29.1973C46.1794 30.3185 46.2938 31.4208 46.544 32.5203C46.6084 32.777 46.6772 33.0392 46.7211 33.326C46.7329 33.3876 46.6534 33.4357 46.6049 33.3943C45.481 32.5214 44.8148 31.0701 44.7304 29.6373ZM38.5363 22.1684C38.4776 22.1155 38.556 22.0134 38.6229 22.062C41.2292 23.7626 40.8629 26.9485 41.2176 29.6302C41.3679 30.6321 41.4276 31.5718 41.7815 32.5156C41.9507 32.9796 42.1902 33.4356 42.4782 33.9272C42.5144 33.9815 42.4531 34.059 42.3916 34.0336C40.6782 33.4251 39.7868 31.4292 39.862 29.7077C39.9406 27.1463 40.6077 24.1405 38.5363 22.1684ZM26.2672 19.5329C26.1852 19.4105 26.771 19.6071 26.8434 19.609C27.41 19.726 27.9397 19.9931 28.3122 20.4487C28.3272 20.4663 28.3107 20.4954 28.2879 20.4913C27.5272 20.3946 26.8967 19.9307 26.2672 19.5329ZM29.1584 21.1989C29.082 20.9042 30.0069 21.6514 30.0942 21.7137C30.9453 22.36 31.5986 23.3161 31.5658 24.4261C31.5654 24.4699 31.5099 24.4952 31.4767 24.4667C30.3759 23.5954 29.9981 22.2745 29.1584 21.1989ZM31.9049 25.5443C31.8833 25.4698 31.9976 25.4203 32.0329 25.4952C32.5182 26.4543 32.9057 27.4584 33.3276 28.436C33.9675 29.9521 34.6319 31.5806 35.7402 32.8205C36.4298 33.7052 37.1703 34.5298 38.0189 35.2723C38.222 35.4421 38.4318 35.6137 38.6357 35.8199C38.6816 35.8628 38.6455 35.9484 38.582 35.9436C37.1597 35.898 35.7675 35.1155 34.8572 34.0058C34.3258 33.3344 33.9953 32.5382 33.6581 31.7614C32.8412 29.7779 32.4697 27.5996 31.9049 25.5443ZM25.4634 31.4672C28.5715 31.3111 30.1479 34.1038 32.011 36.0648C32.7216 36.7871 33.3222 37.5123 34.1633 38.0677C34.5728 38.3437 35.0346 38.5719 35.5566 38.8003C35.6178 38.8229 35.6138 38.9216 35.549 38.9372C34.4068 39.2812 33.0985 38.8977 32.1623 38.1859C31.2086 37.5019 30.6703 36.4651 30.0629 35.5255C29.2074 34.2226 28.3712 32.8239 26.9537 32.0841C26.4936 31.8483 25.9859 31.6892 25.4559 31.6042C25.3774 31.5959 25.3807 31.4673 25.4634 31.4672ZM16.1737 36.2225C16.196 36.228 16.1998 36.2611 16.179 36.2712C15.5067 36.6402 14.724 36.6354 13.9809 36.6836C13.8427 36.6326 14.4321 36.4475 14.4918 36.4066C15.019 36.1681 15.6044 36.0729 16.1737 36.2225ZM17.2992 36.332C17.065 36.1384 18.25 36.1995 18.3589 36.1984C19.4272 36.221 20.5178 36.6106 21.1437 37.5278C21.1691 37.5635 21.1391 37.6167 21.0955 37.6131C19.6927 37.5552 18.6107 36.7086 17.2992 36.332ZM22.0753 38.2332C22.014 38.1855 22.0774 38.0784 22.15 38.1182C23.1063 38.6089 24.0101 39.1935 24.926 39.7364C26.3347 40.5869 27.8296 41.5138 29.4549 41.8654C30.5329 42.1758 31.6166 42.4077 32.7396 42.5095C33.0037 42.5276 33.2742 42.5431 33.5605 42.59C33.6228 42.5978 33.644 42.6883 33.5896 42.7217C32.4123 43.5207 30.826 43.706 29.4373 43.3434C28.6127 43.1125 27.8775 42.6628 27.148 42.2325C25.3212 41.1079 23.7404 39.5639 22.0753 38.2332ZM32.8212 46.8111C32.8841 46.7934 32.9388 46.8757 32.8956 46.9263C32.1737 47.8759 30.8899 48.3347 29.7141 48.3092C28.5403 48.3163 27.4955 47.794 26.4519 47.3908C24.994 46.8396 23.4953 46.1995 21.9137 46.4343C21.4028 46.514 20.8986 46.6836 20.4198 46.9263C20.3514 46.9658 20.2785 46.8598 20.3454 46.8111C22.7682 44.8579 25.685 46.1907 28.345 46.6821C29.3444 46.8487 30.2565 47.0824 31.2634 47.0374C31.7569 47.0199 32.2647 46.9331 32.8212 46.8111ZM15.6579 56.1549C15.3309 56.8485 14.6949 57.3047 14.122 57.7805C13.982 57.8145 14.3479 57.3266 14.3724 57.2561C14.6588 56.7534 15.0765 56.3322 15.625 56.1186C15.6463 56.1099 15.6688 56.1344 15.6579 56.1549ZM20.4242 54.3507C19.2552 55.1284 17.8822 55.0794 16.5999 55.5456C16.2959 55.5273 17.2925 54.8785 17.3786 54.8147C18.2562 54.205 19.3676 53.8792 20.413 54.2533C20.4546 54.2672 20.4615 54.3279 20.4242 54.3507ZM21.5813 54.2764C21.5037 54.2739 21.492 54.1499 21.5741 54.1394C22.6363 53.9743 23.711 53.916 24.7711 53.8169C26.4107 53.677 28.1649 53.5482 29.6865 52.8773C30.741 52.4948 31.7541 52.0454 32.7225 51.4677C32.9467 51.3271 33.1747 51.1806 33.434 51.0503C33.4889 51.02 33.5593 51.0808 33.5349 51.1397C33.0521 52.4782 31.8776 53.5605 30.541 54.0834C29.7382 54.3813 28.8789 54.4496 28.0359 54.5302C25.897 54.6942 23.7106 54.3743 21.5813 54.2764ZM30.5048 59.1126C29.0013 59.5235 27.4126 59.8867 26.2711 61.0062C25.9046 61.371 25.5964 61.8046 25.3517 62.2824C25.3196 62.3545 25.1982 62.3116 25.2238 62.2329C26.0357 59.2286 29.179 58.5925 31.6197 57.4265C32.5262 56.9739 33.4015 56.6267 34.1897 55.9985C34.5786 55.6943 34.9384 55.3256 35.3169 54.8998C35.3574 54.8486 35.45 54.8828 35.4448 54.9493C35.419 56.1419 34.65 57.2677 33.6837 57.9381C32.7384 58.6338 31.5861 58.8253 30.5048 59.1126ZM26.9236 72.5474C27.0669 73.3008 26.8204 74.0437 26.6366 74.7654C26.5451 74.8797 26.5518 74.2655 26.531 74.1939C26.4671 73.6188 26.5574 73.0326 26.8757 72.5375C26.8878 72.5178 26.9205 72.5245 26.9236 72.5474ZM29.7191 68.2862C29.2306 69.6025 28.0911 70.3699 27.3276 71.5009C27.071 71.6641 27.4956 70.5548 27.528 70.4518C27.8797 69.4426 28.5871 68.5259 29.6529 68.214C29.6947 68.2009 29.736 68.2459 29.7191 68.2862ZM37.7467 62.1235C37.2724 62.8364 36.6173 63.3966 35.9827 63.9574C34.3487 65.3473 32.3918 66.3737 30.6117 67.546C30.5473 67.5896 30.4651 67.4962 30.5253 67.4394C31.2876 66.6815 32.1228 66.0026 32.9221 65.2993C34.1664 64.2224 35.5097 63.0871 36.3465 61.6499C36.9748 60.7206 37.5303 59.7617 37.9741 58.7251C38.0729 58.4795 38.1712 58.227 38.3044 57.9692C38.331 57.9124 38.4236 57.9202 38.4386 57.9822C38.8347 59.3489 38.5207 60.9148 37.7467 62.1235ZM42.223 59.9416C43.2514 61.4409 42.7995 63.5796 41.7267 64.9281C40.1576 66.9542 37.851 68.9938 38.3678 71.8068C38.3841 71.884 38.2608 71.9206 38.2351 71.8419C37.1247 68.9452 39.2972 66.5645 40.5844 64.194C41.0518 63.2951 41.5558 62.4997 41.8242 61.5282C41.9601 61.0535 42.0344 60.5437 42.0904 59.9767C42.0929 59.9115 42.1881 59.8849 42.223 59.9416ZM45.6731 79.1875C46.2317 79.7127 46.4691 80.4587 46.7446 81.1505C46.7389 81.2977 46.3806 80.7944 46.3232 80.7503C45.9336 80.3226 45.662 79.7951 45.6284 79.2075C45.6266 79.1846 45.6571 79.1708 45.6731 79.1875ZM45.3848 78.1033C45.2733 78.3866 44.9644 77.2384 44.9303 77.1368C44.6216 76.1137 44.6551 74.9561 45.334 74.0774C45.36 74.0422 45.42 74.0544 45.43 74.0969C45.8085 75.4489 45.3376 76.7396 45.3848 78.1033ZM48.3021 64.3926C48.3373 65.2482 48.1368 66.0865 47.953 66.9132C47.448 68.998 46.4681 70.9786 45.717 72.9734C45.6907 73.0465 45.5691 73.0193 45.5845 72.9379C45.7557 71.8767 46.0324 70.8366 46.2657 69.7977C46.6392 68.1951 47.0588 66.4871 46.891 64.8326C46.8531 63.7115 46.7388 62.6091 46.4885 61.5096C46.4241 61.2529 46.3553 60.9908 46.3115 60.704C46.2997 60.6424 46.3791 60.5943 46.4276 60.6356C47.5515 61.5085 48.2178 62.9598 48.3021 64.3926ZM54.4963 71.8615C54.5549 71.9144 54.4766 72.0165 54.4096 71.9679C51.8033 70.2673 52.1697 67.0814 51.8149 64.3998C51.6646 63.3978 51.6049 62.4581 51.251 61.5143C51.0819 61.0504 50.8424 60.5943 50.5544 60.1027C50.5182 60.0484 50.5794 59.971 50.641 59.9963C52.3543 60.6048 53.2458 62.6006 53.1705 64.3223C53.092 66.8837 52.4248 69.8895 54.4963 71.8615ZM66.7653 74.4971C66.8474 74.6195 66.2615 74.4228 66.1892 74.4209C65.6225 74.3039 65.0929 74.0368 64.7203 73.5812C64.7054 73.5636 64.7218 73.5346 64.7447 73.5387C65.5053 73.6353 66.1359 74.0992 66.7653 74.4971ZM63.8741 72.831C63.9506 73.1258 63.0256 72.3785 62.9383 72.3162C62.0872 71.67 61.4339 70.7138 61.4667 69.6039C61.4671 69.56 61.5227 69.5347 61.5558 69.5632C62.6567 70.4346 63.0344 71.7555 63.8741 72.831ZM61.1276 68.4856C61.1492 68.5601 61.035 68.6096 60.9996 68.5347C60.5144 67.5756 60.1268 66.5715 59.7049 65.5939C59.0651 64.0778 58.4007 62.4493 57.2924 61.2095C56.6027 60.3247 55.8623 59.5001 55.0136 58.7576C54.8106 58.5878 54.6008 58.4163 54.3968 58.21C54.351 58.1671 54.387 58.0815 54.4506 58.0864C55.8729 58.132 57.265 58.9145 58.1754 60.0241C58.7068 60.6955 59.0372 61.4917 59.3745 62.2685C60.1913 64.2521 60.5628 66.4303 61.1276 68.4856ZM67.5691 62.5627C64.461 62.7188 62.8847 59.9261 61.0215 57.9651C60.3109 57.2429 59.7103 56.5177 58.8693 55.9622C58.4597 55.6862 57.9979 55.4581 57.476 55.2296C57.4147 55.2069 57.4188 55.1083 57.4835 55.0927C58.6257 54.7488 59.9341 55.1322 60.8703 55.844C61.824 56.528 62.3623 57.5648 62.9696 58.5044C63.8251 59.8073 64.6613 61.206 66.0789 61.9458C66.539 62.1816 67.0467 62.3407 67.5766 62.4258C67.6552 62.434 67.6518 62.5626 67.5691 62.5627ZM78.5408 57.6234C78.0136 57.8618 77.4281 57.957 76.8589 57.8074C76.8365 57.8019 76.8327 57.7688 76.8536 57.7587C77.5258 57.3897 78.3085 57.3945 79.0517 57.3463C79.1898 57.3973 78.6005 57.5824 78.5408 57.6234ZM75.7333 57.6979C75.9676 57.8915 74.7826 57.8305 74.6737 57.8315C73.6053 57.8089 72.5148 57.4193 71.8889 56.5021C71.8634 56.4664 71.8935 56.4133 71.9371 56.4168C73.3398 56.4747 74.4219 57.3213 75.7333 57.6979ZM70.9572 55.7967C71.0185 55.8444 70.9552 55.9515 70.8825 55.9117C69.9262 55.421 69.0225 54.8364 68.1065 54.2936C66.6978 53.443 65.203 52.5162 63.5776 52.1645C62.4997 51.8541 61.4159 51.6222 60.2929 51.5204C60.0288 51.5024 59.7583 51.4868 59.472 51.4399C59.4098 51.4321 59.3886 51.3416 59.4429 51.3082C60.6203 50.5092 62.2066 50.3239 63.5952 50.6865C64.4199 50.9174 65.1551 51.3672 65.8846 51.7975C67.7114 52.922 69.2922 54.466 70.9572 55.7967ZM71.1189 47.5956C71.6297 47.516 72.134 47.3463 72.6127 47.1036C72.6811 47.0641 72.7541 47.1701 72.6871 47.2188C70.2644 49.172 67.3476 47.8392 64.6876 47.3478C63.6882 47.1812 62.7761 46.9476 61.7691 46.9925C61.2756 47.01 60.7679 47.0968 60.2113 47.2188C60.1484 47.2365 60.0937 47.1543 60.1369 47.1036C60.8589 46.154 62.1427 45.6952 63.3185 45.7208C64.4922 45.7135 65.537 46.2359 66.5806 46.6391C68.0386 47.1903 69.5373 47.8304 71.1189 47.5956ZM77.3747 37.875C77.7017 37.1814 78.3377 36.7252 78.9106 36.2494C79.0506 36.2155 78.6846 36.7032 78.6601 36.7738C78.3738 37.2766 77.956 37.6977 77.4076 37.9113C77.3863 37.9201 77.3638 37.8955 77.3747 37.875ZM75.6539 39.2152C74.7763 39.8249 73.665 40.1507 72.6195 39.7766C72.578 39.7627 72.5711 39.702 72.6084 39.6793C73.7773 38.9015 75.1503 38.9505 76.4327 38.4843C76.7367 38.5026 75.74 39.1514 75.6539 39.2152ZM71.4512 39.7535C71.5288 39.756 71.5406 39.88 71.4584 39.8905C70.3962 40.0556 69.3215 40.1138 68.2614 40.213C66.6218 40.353 64.8677 40.4818 63.346 41.1527C62.2915 41.5351 61.2784 41.9845 60.3101 42.5622C60.0858 42.7028 59.8578 42.8493 59.5986 42.9796C59.5437 43.0099 59.4733 42.9492 59.4977 42.8902C59.9805 41.5517 61.155 40.4694 62.4916 39.9465C63.2944 39.6486 64.1536 39.5803 64.9966 39.4997C67.1355 39.3357 69.322 39.6556 71.4512 39.7535ZM62.5277 34.9173C64.0313 34.5064 65.6199 34.1432 66.7615 33.0237C67.128 32.659 67.4362 32.2254 67.6808 31.7476C67.713 31.6754 67.8343 31.7183 67.8088 31.797C66.9968 34.8013 63.8535 35.4374 61.4128 36.6034C60.5064 37.056 59.6311 37.4032 58.8429 38.0314C58.4539 38.3356 58.0942 38.7043 57.7156 39.1301C57.6752 39.1814 57.5825 39.1471 57.5877 39.0806C57.6136 37.8881 58.3825 36.7623 59.3488 36.0919C60.2941 35.3961 61.4464 35.2046 62.5277 34.9173ZM66.109 21.4825C65.9657 20.7291 66.2122 19.9862 66.396 19.2645C66.4874 19.1502 66.4808 19.7645 66.5016 19.836C66.5654 20.4111 66.4751 20.9974 66.1569 21.4925C66.1448 21.5121 66.1121 21.5055 66.109 21.4825ZM63.3134 25.7437C63.802 24.4274 64.9415 23.66 65.705 22.5291C65.9615 22.3658 65.5369 23.4751 65.5045 23.5781C65.1529 24.5873 64.4454 25.5041 63.3797 25.8159C63.3379 25.8291 63.2966 25.784 63.3134 25.7437ZM55.2858 31.9065C55.7602 31.1936 56.4152 30.6333 57.0499 30.0725C58.6839 28.6826 60.6408 27.6563 62.4209 26.4839C62.4852 26.4403 62.5675 26.5337 62.5072 26.5905C61.745 27.3484 60.9098 28.0273 60.1104 28.7306C58.8661 29.8075 57.5228 30.9428 56.686 32.3799C56.0578 33.3092 55.5022 34.2682 55.0585 35.3048C54.9596 35.5504 54.8614 35.8029 54.7281 36.0607C54.7015 36.1175 54.609 36.1097 54.594 36.0477C54.1978 34.681 54.5119 33.1151 55.2858 31.9065ZM50.8096 34.0884C49.7811 32.589 50.2331 30.4503 51.3058 29.1018C52.875 27.0758 55.1815 25.0361 54.6647 22.2231C54.6484 22.1459 54.7718 22.1093 54.7974 22.188C55.9078 25.0847 53.7354 27.4654 52.4481 29.8359C51.9808 30.7348 51.4767 31.5302 51.2083 32.5017C51.0724 32.9765 50.9981 33.4862 50.9421 34.0532C50.9396 34.1185 50.8444 34.1451 50.8096 34.0884Z" fill="white"/>
</g>
<defs>
<clipPath id="clip0_149_990">
<rect width="87" height="87" fill="white" transform="translate(3 3.5)"/>
</clipPath>
</defs>
</svg>
