<svg width="94" height="94" viewBox="0 0 94 94" fill="none" xmlns="http://www.w3.org/2000/svg">
<rect x="1" y="1" width="92" height="92" rx="46" stroke="#EBEBEB" stroke-width="2"/>
<g clip-path="url(#clip0_247_116)">
<g clip-path="url(#clip1_247_116)">
<path d="M70.3659 41.6316C69.4488 40.7974 68.0199 40.8435 67.0873 41.6603C66.2992 42.3505 65.3897 43.008 64.4599 43.7377L63.7425 44.3098C63.5109 44.5003 63.2337 44.739 62.9962 44.9635C62.4994 45.4152 62.0499 45.9067 61.6389 46.4181C59.9749 48.4674 58.9399 50.7802 58.2884 53.1665C57.6413 55.5817 57.5017 57.9656 57.3318 60.1897L57.195 61.8392C57.1426 62.3863 57.082 62.852 56.9874 63.3517C56.8019 64.3305 56.5173 65.2806 56.1067 66.1567C55.2946 67.9136 54.0136 69.3836 52.3574 70.3517C50.6889 71.323 48.6987 71.8726 46.7167 71.9332C44.7249 71.9974 42.7276 71.5793 41.033 70.6496C39.3278 69.7299 37.9491 68.2846 37.1934 66.5434C36.4241 64.8066 36.2692 62.7895 36.6141 60.8163C36.9545 58.8471 37.7754 56.8902 38.9114 55.2378C40.0445 53.5992 41.6048 52.2339 43.3106 51.7264C44.1587 51.4676 45.0273 51.43 45.8844 51.6039C46.3145 51.6932 46.7453 51.8337 47.1678 52.0221C47.5821 52.2041 48.0288 52.4546 48.3673 52.6933C49.7898 53.6821 50.6762 55.4388 50.7235 57.218C50.7519 58.1044 50.5778 58.9858 50.2118 59.7583C49.8537 60.5286 49.2768 61.2036 48.6054 61.6871C48.2813 61.9193 47.9649 62.0523 47.6676 62.1134C47.5924 62.1265 47.5182 62.1397 47.4429 62.1435C47.3859 62.1502 47.2331 62.1456 47.1332 62.1483C46.3039 62.1784 45.0278 61.9446 44.7142 61.0453C44.5137 60.4705 44.8922 59.7646 45.4818 59.6134C45.8041 59.5308 46.1431 59.5971 46.4758 59.6037C47.5552 59.6249 48.6157 58.945 49.047 57.9553C49.4782 56.9656 49.2542 55.726 48.5038 54.9499C46.742 53.1276 43.8648 54.6568 42.4091 56.094C41.7415 56.7531 41.2446 57.5671 40.967 58.4335C40.3785 60.1492 40.7375 62.1801 41.9314 63.5526C42.5236 64.2277 43.2631 64.7154 44.0079 65.0101C44.7545 65.3105 45.5001 65.4387 46.2063 65.4771C46.5582 65.4946 46.9096 65.5035 47.2449 65.4776C47.4261 65.4636 47.5558 65.4654 47.7785 65.4366C47.9837 65.4149 48.1871 65.3779 48.3875 65.333C49.1907 65.1465 49.906 64.7735 50.4963 64.3506C51.6485 63.5126 52.5605 62.4036 53.1488 61.128C53.49 60.3912 53.7153 59.6123 53.8411 58.8141C53.8412 58.8056 53.842 58.7959 53.8421 58.7874C53.9153 58.2973 53.9468 57.8037 53.9387 57.3124C54.0467 56.1617 54.21 54.9044 54.2523 53.9409L54.5241 49.7015C54.7081 46.8725 54.954 44.0436 55.1832 41.2091L55.8968 32.6838C56.1177 29.8274 56.3582 26.97 56.5002 24.0237C56.5055 23.8946 56.5022 23.749 56.4876 23.6167C56.3007 21.9297 54.5219 20.8054 52.8137 21.5747C51.8178 22.0232 51.2552 23.0974 51.3757 24.1881C51.6774 26.9115 51.7914 29.7273 51.8152 32.5379C51.8468 35.353 51.7911 38.1786 51.7009 41.0057C51.5984 43.8328 51.477 46.6632 51.2964 49.4937L51.2912 49.5772C51.2573 50.1218 50.6415 50.4204 50.1818 50.1022C49.5941 49.6998 49.0481 49.4073 48.4206 49.1316C47.7407 48.8358 47.2797 48.1834 47.2378 47.4432C47.1308 45.5487 47.0689 43.6533 47.0294 41.7575C46.9685 39.1199 46.9724 36.481 46.9937 33.8419L47.0653 29.8823C47.1142 28.562 47.1437 27.242 47.212 25.9214C47.3305 23.2804 47.495 20.6385 47.7805 17.9943C47.8027 17.7765 47.8008 17.5389 47.7676 17.3125C47.5384 15.7454 46.0085 14.6898 44.4321 15.08C43.0561 15.4206 42.2308 16.8259 42.4338 18.2288C42.8083 20.816 43.0671 23.4053 43.2813 25.9955C43.3993 27.3127 43.4787 28.6306 43.5773 29.9481L43.798 33.9021C43.9188 36.5386 44.0222 39.1754 44.0607 41.8135C44.0923 43.6854 44.1021 45.5576 44.0684 47.4307C44.0587 47.9708 43.6803 48.4432 43.1516 48.5541C42.8959 48.6077 42.6437 48.6735 42.3969 48.7518C42.3919 48.7534 42.387 48.7549 42.382 48.7565C41.6566 48.9839 40.9031 48.5105 40.831 47.7536C40.74 46.7974 40.6478 45.8421 40.5501 44.8913L39.8332 38.2514C39.5884 36.0442 39.373 33.8375 39.188 31.6342C39.0113 29.4303 38.8856 27.2256 38.8674 25.0291C38.865 24.8666 38.8468 24.6886 38.8109 24.5236C38.4647 22.9326 36.6597 22.035 35.105 22.9292C34.1909 23.455 33.7569 24.544 33.9771 25.5802C34.4564 27.7829 34.9019 29.9686 35.3118 32.1527C35.7139 34.3374 36.1026 36.5164 36.4355 38.6985C36.7806 40.8787 37.0917 43.0591 37.3268 45.242C37.4667 46.4624 37.5873 47.6834 37.6777 48.9037C37.7977 50.5236 37.3224 52.1167 36.3854 53.4435C36.381 53.4497 36.3767 53.4559 36.3723 53.4621C36.3695 53.4662 36.3666 53.4703 36.3638 53.4744C36.082 53.8837 35.4477 53.7413 35.3797 53.249L34.7907 48.983L33.8439 42.5583C33.5246 40.4004 33.178 38.247 32.7773 35.9994L32.7731 35.9727C32.7111 35.6359 32.5767 35.3027 32.3629 34.9938C31.8026 34.1843 30.7722 33.7805 29.8128 34.0011C28.2224 34.3669 27.451 36.0544 28.0942 37.4526C28.9425 39.2962 29.5722 41.3112 30.1361 43.3368C30.6822 45.3713 31.1493 47.4397 31.5401 49.5238C31.945 51.6061 32.281 53.7044 32.5707 55.8086C32.8579 57.9129 33.0843 60.0272 33.2247 62.1411C33.2275 62.1811 33.3516 63.9574 33.3599 64.0101C33.4726 65.3012 33.7745 66.5873 34.307 67.8045C35.3417 70.2114 37.2405 72.1956 39.4748 73.45C40.5916 74.0864 41.8008 74.5408 43.0394 74.8355C44.2717 75.1237 45.5335 75.254 46.7923 75.2336C49.3117 75.186 51.8101 74.5549 54.0591 73.2926C56.3258 72.0224 58.1678 69.9669 59.2671 67.6475C59.8282 66.4896 60.211 65.2689 60.4626 64.0395C60.589 63.4345 60.6788 62.7828 60.7438 62.2097L60.9185 60.4944C61.1276 58.2367 61.3148 56.0955 61.8791 54.1587C62.4472 52.2211 63.3354 50.3391 64.6025 48.9492C64.9237 48.6057 65.2595 48.2841 65.6216 48.0065C65.9705 47.747 66.3955 47.4629 66.8505 47.1935C67.7536 46.6571 68.7481 46.1518 69.8182 45.6019L69.8614 45.5803C70.0325 45.4911 70.1957 45.3798 70.3468 45.2462C71.417 44.3007 71.4528 42.6202 70.3659 41.6316Z" fill="#EBEBEB"/>
</g>
</g>
<defs>
<clipPath id="clip0_247_116">
<rect width="72" height="72" fill="white" transform="translate(11 11)"/>
</clipPath>
<clipPath id="clip1_247_116">
<rect width="68.2105" height="68.2105" fill="white" transform="translate(12.8947 11)"/>
</clipPath>
</defs>
</svg>
