<svg width="94" height="94" viewBox="0 0 94 94" fill="none" xmlns="http://www.w3.org/2000/svg">
<rect x="1" y="1" width="92" height="92" rx="46" stroke="#EBEBEB" stroke-width="2"/>
<g clip-path="url(#clip0_151_1210)">
<path d="M51.7059 24.0293C45.2215 26.8882 50.9534 35.5635 45.1293 43.4722C45.1295 43.4731 45.1291 43.4741 45.1293 43.4751C45.5863 45.8087 45.2445 48.4091 43.6645 49.4719C44.2188 48.4125 44.1209 46.2277 43.6064 44.2016C38.8521 33.3818 31.6672 38.593 26.9775 26.7914C26.2443 38.0434 34.4916 37.2099 38.8335 48.1811C41.3022 48.6551 43.5474 50.3139 42.9747 53.0028C42.1212 50.2524 39.1972 49.3563 35.6842 50.079C30.8938 51.5106 27.9137 55.087 24.0602 53.8908C28.2499 58.4215 32.8268 53.9638 38.3453 55.3525C39.3414 54.7367 40.4707 54.3484 41.5069 54.367C42.1785 54.379 42.81 54.563 43.3409 54.9651C41.6355 54.7106 38.2379 56.9586 37.0483 59.0728C35.9706 62.1071 37.5918 66.1376 34.6984 70.6114C41.0028 69.6855 40.1655 63.5692 44.0766 60.3607C43.4955 58.0183 44.0145 55.0635 46.0206 54.2175C45.2065 55.2412 45.1517 57.8267 45.7123 59.9274C47.4414 64.6687 52.4928 64.2595 55.7129 70.8526C56.1152 66.0704 53.0004 62.7408 51.9865 59.1705C49.4943 57.9975 47.0613 55.4273 47.5035 53.1676C47.9998 54.7528 50.9225 56.9889 53.3902 57.8736C59.3409 59.4516 63.9859 55.7086 70.4863 60.1775C66.3443 52.8187 60.9436 55.8984 55.4961 52.4383C53.0257 53.0809 50.0557 52.827 48.9014 51.1108C49.909 51.638 51.9385 51.5791 53.8786 51.1291L53.8878 51.1262C63.5283 47.5137 62.9126 36.3023 70.291 35.4766C62.0602 32.002 60.1934 43.8597 52.426 45.4771C50.9303 47.9426 48.593 49.7096 45.9898 49.7862C47.1097 49.0294 49.0023 47.5096 50.3905 45.6513C50.3822 45.651 50.3742 45.6515 50.3661 45.6513C55.3336 39.2657 48.3206 32.5005 51.7057 24.0295L51.7059 24.0293ZM65.0359 28.8818C61.384 28.8997 57.5844 32.8193 57.6414 38.0064C60.3523 32.034 65.0797 30.9363 70.3367 33.0016C69.0884 30.0914 67.0845 28.8718 65.0359 28.8818ZM43.0174 28.9397C42.9654 28.9385 42.9119 28.9403 42.8588 28.9427C42.3723 28.9646 41.8356 29.1366 41.2535 29.4921C44.1998 31.4548 45.6575 35.0373 44.3449 40.3776C47.1822 36.1354 46.2944 29.0156 43.0175 28.9396L43.0174 28.9397ZM23.9775 36.6025V40.5576C27.7982 40.8843 31.4543 42.7163 34.7015 46.4414C33.4108 41.1734 28.6702 37.4837 23.9775 36.6025ZM36.4471 56.4177C30.5094 57.2251 30.5465 60.2538 24.8076 59.6068C29.648 63.8272 32.2757 58.7955 36.4471 56.4177ZM63.1529 59.6343C60.9785 59.6538 58.087 60.2586 55.2733 60.4217C59.0692 62.2781 65.4862 59.9607 66.6196 63.3147C67.1583 60.3413 65.6172 59.6122 63.1528 59.6343H63.1529Z" fill="white"/>
</g>
<defs>
<clipPath id="clip0_151_1210">
<rect width="76" height="76" fill="white" transform="translate(9 9)"/>
</clipPath>
</defs>
</svg>
