<svg width="94" height="94" viewBox="0 0 94 94" fill="none" xmlns="http://www.w3.org/2000/svg">
<rect x="1" y="1" width="92" height="92" rx="46" stroke="#EBEBEB" stroke-width="2"/>
<g clip-path="url(#clip0_151_1223)">
<path d="M57.6117 22.025C60.5288 26.99 61.0799 32.6949 59.6141 37.85C56.5824 34.9521 52.697 32.5795 48.6899 30.4227C54.6791 38.271 54.7032 43.7379 54.2087 49.4113C51.6599 40.4018 42.4948 35.7604 34.6344 38.8496C40.1803 38.6198 45.4104 42.154 46.9334 47.6226C48.6828 53.9055 45.0016 60.5579 38.5324 61.9205C35.4076 62.5789 32.435 62.0294 29.8145 60.6556C29.8352 60.6562 29.8555 60.6552 29.876 60.6556C25.9541 58.5245 24.7951 54.8877 26.3337 52.3128C26.4886 51.9568 26.7094 51.611 26.9905 51.3005C27.9851 50.2011 29.3679 49.9693 30.0799 50.7829C30.7921 51.5965 30.5633 53.1479 29.5687 54.2473C28.8727 55.0168 27.9857 55.3626 27.272 55.221C27.6478 56.2503 28.3389 57.2541 29.391 58.1001C33.4405 56.9407 34.8038 52.2522 32.8425 48.7998C36.7114 51.6665 35.6349 57.3927 31.3157 59.2644C31.9122 59.5329 32.5757 59.7627 33.3083 59.9438C35.8229 58.8227 37.903 56.4549 38.7364 53.3675C40.1154 48.2579 37.56 43.1191 33.0301 41.8901C30.1113 41.0982 27.0857 42.1265 24.9331 44.3227C23.5216 45.6625 22.5419 47.4397 22.1382 49.6504L22.1707 49.6116C21.985 50.5335 21.9227 51.4498 21.9765 52.3385C21.5618 62.5878 27.7992 67.7561 38.4582 70.6478C45.0931 72.4475 52.226 70.8371 57.4855 66.9311C67.5898 60.3099 73.137 47.4567 70.0789 35.333C69.5496 37.3717 68.7876 39.3428 67.8081 41.2075C68.2382 33.6743 64.5345 26.1589 57.6117 22.025ZM34.1365 30.7106C28.5835 30.6723 23.2404 33.972 22.1287 44.7498C23.6362 42.5639 25.8482 40.9886 28.4558 40.1272C29.1588 34.4714 34.1114 31.1498 39.8781 31.8007C38.0544 31.1467 36.0821 30.7239 34.1363 30.7107L34.1365 30.7106ZM63.8583 35.1551C68.3519 44.127 62.889 58.1414 55.0724 63.9195C50.1782 67.9974 42.565 69.5856 33.2402 66.184C58.6717 68.4123 63.1341 50.6114 54.8847 36.679C59.2513 41.1281 61.1702 46.3364 61.0827 51.2163C63.3499 46.1219 64.4304 40.3785 63.8583 35.1552V35.1551ZM31.212 43.5368C34.7997 43.5892 38.1188 46.4435 36.9603 53.0375C36.8677 47.4486 29.4235 41.4121 23.885 50.0291C24.2359 45.9108 27.8419 43.4873 31.212 43.5366V43.5368ZM50.3074 47.8358C56.2299 52.6578 51.7859 63.9566 40.1468 63.6575C46.1588 62.8052 53.0303 54.4159 50.3075 47.8358H50.3074Z" fill="white"/>
</g>
<defs>
<clipPath id="clip0_151_1223">
<rect width="72" height="72" fill="white" transform="translate(11 11)"/>
</clipPath>
</defs>
</svg>
