<svg width="20" height="21" viewBox="0 0 20 21" fill="none" xmlns="http://www.w3.org/2000/svg">
<path d="M5.8 0.936523H14.2C17.4 0.936523 20 3.53652 20 6.73652V15.1365C20 16.6748 19.3889 18.15 18.3012 19.2377C17.2135 20.3255 15.7383 20.9365 14.2 20.9365H5.8C2.6 20.9365 0 18.3365 0 15.1365V6.73652C0 5.19827 0.61107 3.72302 1.69878 2.6353C2.78649 1.54759 4.26174 0.936523 5.8 0.936523ZM5.6 2.93652C4.64522 2.93652 3.72955 3.31581 3.05442 3.99094C2.37928 4.66607 2 5.58174 2 6.53652V15.3365C2 17.3265 3.61 18.9365 5.6 18.9365H14.4C15.3548 18.9365 16.2705 18.5572 16.9456 17.8821C17.6207 17.207 18 16.2913 18 15.3365V6.53652C18 4.54652 16.39 2.93652 14.4 2.93652H5.6ZM15.25 4.43652C15.5815 4.43652 15.8995 4.56822 16.1339 4.80264C16.3683 5.03706 16.5 5.355 16.5 5.68652C16.5 6.01804 16.3683 6.33599 16.1339 6.57041C15.8995 6.80483 15.5815 6.93652 15.25 6.93652C14.9185 6.93652 14.6005 6.80483 14.3661 6.57041C14.1317 6.33599 14 6.01804 14 5.68652C14 5.355 14.1317 5.03706 14.3661 4.80264C14.6005 4.56822 14.9185 4.43652 15.25 4.43652ZM10 5.93652C11.3261 5.93652 12.5979 6.46331 13.5355 7.40099C14.4732 8.33867 15 9.61044 15 10.9365C15 12.2626 14.4732 13.5344 13.5355 14.4721C12.5979 15.4097 11.3261 15.9365 10 15.9365C8.67392 15.9365 7.40215 15.4097 6.46447 14.4721C5.52678 13.5344 5 12.2626 5 10.9365C5 9.61044 5.52678 8.33867 6.46447 7.40099C7.40215 6.46331 8.67392 5.93652 10 5.93652ZM10 7.93652C9.20435 7.93652 8.44129 8.25259 7.87868 8.8152C7.31607 9.37781 7 10.1409 7 10.9365C7 11.7322 7.31607 12.4952 7.87868 13.0578C8.44129 13.6205 9.20435 13.9365 10 13.9365C10.7956 13.9365 11.5587 13.6205 12.1213 13.0578C12.6839 12.4952 13 11.7322 13 10.9365C13 10.1409 12.6839 9.37781 12.1213 8.8152C11.5587 8.25259 10.7956 7.93652 10 7.93652Z" fill="#EBEBEB"/>
</svg>
