<svg width="94" height="95" viewBox="0 0 94 95" fill="none" xmlns="http://www.w3.org/2000/svg">
<rect x="1" y="1.5" width="92" height="92" rx="46" stroke="#EBEBEB" stroke-width="2"/>
<g clip-path="url(#clip0_149_979)">
<path d="M32.4634 42.7374C30.3121 42.3564 28.6986 40.4068 27.8695 38.4796C26.5473 35.4319 26.5697 31.7792 27.8695 28.6419C29.6846 24.0255 34.3906 21.1795 39.2086 20.821C42.8838 20.3952 46.7158 21.4484 49.5842 23.8014C57.0017 29.964 57.5171 41.9755 54.3125 50.3566C52.5198 54.9953 50.3685 59.5444 48.3965 64.0935C47.4105 66.581 46.2228 69.0684 46.29 71.7351C46.3124 72.5643 46.6709 73.371 47.0519 74.0657C47.9259 75.7464 49.4945 76.2394 51.0632 75.2086C51.4217 74.9845 51.8251 75.4775 51.489 75.7688C49.5842 77.4495 47.2312 76.8669 45.797 74.8724C43.7129 72.2505 44.1163 68.934 44.811 65.9087C45.4608 63.0851 46.3348 60.3512 47.164 57.5948C48.2396 54.0765 49.3825 50.5583 50.1892 46.9503C51.1304 42.1547 50.7046 36.7317 47.9483 32.6531C46.3796 30.3002 44.2955 28.6643 41.6064 28.0144C38.6708 27.3197 35.1973 27.8575 33.0909 30.1657C30.7827 32.698 29.9087 36.8213 31.2085 40.0707C31.5446 40.8326 32.0152 41.5497 32.7323 42.0875C33.046 42.3116 32.8219 42.8046 32.4634 42.7374ZM48.5309 71.2197C48.5309 71.3318 48.5757 71.4214 48.6878 71.4438C48.8222 71.4662 48.9119 71.4214 48.9567 71.2869C50.503 66.5362 53.6851 62.6369 56.7104 58.7377C57.7188 57.4379 58.7944 56.1158 59.8028 54.7264C61.3267 52.5975 63.0746 50.2221 63.6797 47.5106C64.3295 44.687 63.8814 41.6169 62.5592 39.1071C61.6628 37.4488 60.4303 35.9921 58.8168 35.0958C58.6376 34.9837 58.4135 35.2078 58.4807 35.3647C59.0633 37.023 59.4667 38.5468 59.646 40.0707C60.1838 44.5077 58.9961 48.9896 56.8448 52.8664C53.5954 58.648 49.3601 64.4297 48.5309 71.2197ZM51.1304 71.0853C51.108 71.1525 51.1304 71.2645 51.1976 71.3094C51.2649 71.3542 51.3993 71.3318 51.4666 71.2645C53.3489 68.553 55.5002 66.1104 58.0101 64.0487C58.8168 63.354 59.6684 62.7266 60.5648 62.0767C62.4472 60.7321 64.6209 59.5444 65.8534 57.3707C67.1307 55.2418 67.7582 52.1941 66.3016 49.998C66.1895 49.8412 65.9654 49.886 65.9206 50.0428C65.2035 52.1493 64.1503 53.5611 62.7385 55.1298C61.3491 56.5864 60.0718 58.2895 58.5703 59.7237C55.3434 62.8386 52.6318 66.7827 51.1304 71.0853ZM45.8418 55.7796C45.8418 55.8917 45.8866 55.9589 45.9763 55.9813C46.0883 56.0037 46.1779 55.9589 46.2003 55.8469C46.4693 54.8609 46.7382 53.8973 46.9847 52.9112C48.2844 47.8915 49.0912 42.5581 47.5897 37.4263C46.9399 35.2526 45.909 33.0117 44.0266 31.5775C43.0182 30.7483 41.584 30.2553 40.2394 30.2778C39.0966 30.2553 37.8865 30.345 36.6315 30.7932C33.8528 31.712 31.9928 34.5579 32.441 37.4936C32.6875 39.7793 34.5026 41.841 36.8332 41.9979C38.5812 42.1995 40.5308 41.3928 41.2927 39.6897C41.8081 38.6813 41.6288 37.0006 40.3515 36.642C39.5896 36.4627 38.626 37.0454 38.8725 37.8521C38.9397 38.0314 39.231 38.009 39.2534 37.8073C39.3207 37.4936 39.8361 37.5384 39.9705 37.6953C40.0378 38.0314 39.8361 38.4124 39.5672 38.6589C39.0069 39.1967 38.0881 39.2415 37.3935 38.9726C35.9368 38.4572 36.0265 36.53 36.6988 35.4767C37.4159 34.3339 38.9397 33.8184 40.3739 33.684C40.5308 33.6616 40.6876 33.6616 40.8221 33.6392C41.7185 33.5943 42.5476 34.1994 43.1751 34.8269C43.3768 35.051 43.5784 35.2526 43.7353 35.5215C44.318 36.3955 44.811 37.2919 45.1919 38.3003C47.4777 43.7906 46.5813 49.998 45.8418 55.7796Z" fill="white"/>
</g>
<defs>
<clipPath id="clip0_149_979">
<rect width="72" height="72" fill="white" transform="translate(11 11.5)"/>
</clipPath>
</defs>
</svg>
