<svg width="94" height="94" viewBox="0 0 94 94" fill="none" xmlns="http://www.w3.org/2000/svg">
<rect x="1" y="1" width="92" height="92" rx="46" stroke="#EBEBEB" stroke-width="2"/>
<g clip-path="url(#clip0_247_103)">
<path d="M70.1817 70.2707C66.0584 66.7907 62.5477 64.0156 59.4007 61.9456C58.438 61.3123 57.174 62.1057 57.3235 63.2483C57.6144 65.4714 58.0455 67.9206 58.5924 70.652C58.7073 71.2254 57.9489 71.5364 57.6259 71.0489C56.208 68.9089 54.1928 66.2277 52.7217 64.3166C51.939 63.2998 50.332 63.681 50.0736 64.9379C49.3162 68.6219 48.7985 73.0596 48.3446 78.4235C48.2832 79.1502 47.2198 79.1485 47.1583 78.4219C46.714 73.1721 46.2077 68.8099 45.4762 65.1729C45.2478 64.0374 43.7842 63.7029 43.0821 64.6242C41.7458 66.3777 40.3508 68.38 38.8464 70.6515C38.5232 71.1395 37.7655 70.8262 37.8805 70.2523C38.4317 67.5036 38.8637 65.0404 39.1545 62.8053C39.3044 61.6533 38.0223 60.8606 37.0614 61.5134C34.0961 63.5279 30.8025 66.1466 26.9847 69.369C26.4267 69.84 25.6744 69.0877 26.1454 68.5296C29.4742 64.5851 32.1594 61.2017 34.1989 58.1606C34.8378 57.2081 34.0668 55.9408 32.9274 56.0711C30.4426 56.355 27.6686 56.8299 24.5216 57.4609C23.9461 57.5763 23.6323 56.8155 24.1215 56.4914C26.8612 54.6767 29.2087 53.0216 31.2012 51.4361C32.0914 50.7277 31.7557 49.3022 30.6434 49.0635C26.8721 48.254 22.2918 47.7122 16.7058 47.2397C15.9792 47.1782 15.9808 46.1148 16.7074 46.0534C21.9997 45.6056 26.3901 45.0958 30.0457 44.356C31.1758 44.1273 31.5173 42.6727 30.6062 41.9661C28.743 40.5209 26.5874 39.0125 24.1118 37.3722C23.623 37.0482 23.9402 36.2905 24.5152 36.4057C27.6234 37.0283 30.8072 37.4018 32.8263 37.7854C34.3891 38.1365 35.1247 36.9112 34.1655 35.6084C33.2063 34.3056 29.3382 28.985 25.8806 24.8887C25.4099 24.3311 26.1617 23.5793 26.7193 24.0499C30.4179 27.1715 33.6236 29.7266 36.5151 31.714C37.4774 32.3753 38.7693 31.5826 38.6155 30.4252C38.3252 28.2395 37.9012 25.8357 37.3656 23.1612C37.2506 22.5874 38.0092 22.2758 38.3324 22.7637C40.0321 25.3294 41.591 27.5518 43.0833 29.4605C43.791 30.3657 45.2384 30.0225 45.466 28.8963C46.2027 25.2507 46.7116 20.8746 47.1579 15.6043C47.2194 14.8769 48.2834 14.8771 48.345 15.6045C48.7857 20.8124 49.2869 25.1477 50.0098 28.7672C50.236 29.8995 51.6894 30.2378 52.398 29.3262C53.859 27.447 55.3854 25.269 57.0455 22.7637C57.3688 22.2757 58.1274 22.5877 58.0125 23.1617C57.4694 25.8734 57.0408 28.3066 56.7498 30.5169C56.5979 31.6709 57.8844 32.4652 58.8456 31.8088C61.7753 29.8079 65.0267 27.2202 68.7868 24.0471C69.3448 23.5762 70.0967 24.3285 69.6259 24.8864C66.2449 28.8931 63.5285 32.3216 61.4769 35.4001C60.8407 36.3547 61.6156 37.6204 62.755 37.4864C65.1954 37.1995 67.913 36.7311 70.989 36.1153C71.564 36.0001 71.8774 36.7605 71.3885 37.0845C68.644 38.9034 66.2912 40.5607 64.2947 42.1482C63.3926 42.8655 63.7529 44.3155 64.8857 44.5273C68.3543 45.1761 72.4567 45.6419 77.3214 46.0536C78.049 46.1152 78.0485 47.1787 77.3209 47.2403C73.0996 47.5979 69.4527 47.9959 66.2956 48.5189C63.3835 49.0013 61.9845 49.7851 60.0832 52.043C59.7896 52.3916 57.0978 56.1288 53.4716 56.9488C50.4453 57.6331 46.7722 57.2933 44.3829 56.0072C40.44 53.8781 38.2582 47.211 40.4936 43.0702C42.4588 39.099 48.5153 37.0583 51.9159 38.8943C55.2729 40.6957 56.9105 45.24 54.9864 48.8836C53.7582 51.0125 50.5239 52.4863 47.0143 50.5212C46.0835 50.0191 45.5059 49.039 45.2017 48.0239C44.8976 47.0088 45.1091 45.7204 45.6111 44.7896C46.0399 44.0018 46.9523 43.498 47.821 43.2827C48.7957 43.0412 49.4681 43.2675 49.9203 43.6114C50.2712 43.8783 50.0712 44.4548 49.6303 44.4502C48.9945 44.4436 48.1799 44.713 47.4398 45.7745C46.9803 46.4337 47.0931 47.3462 47.5968 48.0526C47.7751 48.3027 48.0156 48.5062 48.2845 48.6549C48.9709 49.0344 49.7631 49.115 50.5107 48.893C51.2509 48.6695 51.8629 48.1747 52.2293 47.4932C53.2664 45.5693 52.4676 42.5131 50.6719 41.5457C48.1472 40.1826 44.3984 41.1939 43.1084 43.5867C41.3458 46.8556 42.6797 51.8759 45.7541 53.5359C47.7073 54.5876 50.3825 54.8295 52.911 54.1809C54.637 53.7338 56.1357 52.9277 57.2462 51.8723C57.4257 51.7 57.598 51.5204 57.7481 51.3372C58.0816 50.9598 58.3638 50.5604 58.591 50.1353C58.8879 49.5856 59.1296 49.025 59.3202 48.4533C59.7782 47.0974 59.9468 45.6903 59.8479 44.3123C59.8296 44.0375 59.7967 43.7664 59.7562 43.4951C59.5512 42.0807 59.0638 40.7211 58.3235 39.4935C58.1183 39.1526 57.8948 38.8229 57.6491 38.5078C56.9676 37.6174 56.1357 36.822 55.1684 36.1698C54.9961 36.0525 54.8165 35.939 54.637 35.8327C54.5087 35.7558 54.3768 35.6824 54.2448 35.6091C53.1016 34.9935 51.8666 34.5464 50.5878 34.2753C50.1004 34.1726 49.6056 34.0957 49.1073 34.0481C48.2021 33.9529 47.286 33.9418 46.3736 34.0223C45.8457 34.0663 45.3181 34.1397 44.7977 34.2495C44.0686 34.3888 43.3539 34.5904 42.654 34.8506C41.9504 35.1145 41.2835 35.4258 40.6642 35.7923C40.5542 35.851 40.4443 35.917 40.338 35.9866C39.224 36.6791 38.2639 37.5294 37.4796 38.5113C37.2819 38.7533 37.0987 39.0025 36.9263 39.2627C36.4865 39.9222 36.1201 40.6331 35.8343 41.388C35.5081 42.2456 35.2664 43.1213 35.1123 44.0081C35.0465 44.3674 34.9989 44.7301 34.9622 45.0892C34.8595 46.1227 34.8668 47.1596 34.9842 48.1785C35.0501 48.7684 35.1564 49.3548 35.2956 49.93C35.6549 51.3996 36.2521 52.8105 37.0767 54.0967C37.0949 54.126 37.1132 54.1553 37.1352 54.1847C37.2964 54.4302 37.4614 54.6719 37.6372 54.9029C38.4838 56.0388 39.4842 57.0027 40.6091 57.7723C40.6458 57.7979 40.6789 57.8234 40.7154 57.8454H40.7192C42.1447 58.8018 43.7606 59.4542 45.5197 59.7731C45.8311 59.8316 46.8719 59.9563 47.0771 59.971C47.7989 60.0222 50.4411 59.9599 51.0421 59.8903C53.1198 59.6521 56.4546 58.3951 56.5609 58.3402C59.606 56.9707 61.2697 55.2577 62.1854 53.8376C63.0321 52.5243 64.8031 52.1907 66.0604 53.1186C67.8091 54.4094 69.9962 55.9905 71.3941 56.9167C71.8817 57.2398 71.5703 57.998 70.9967 57.8831C69.3378 57.5509 67.1361 57.1921 65.3505 56.9165C64.0881 56.7216 63.179 58.0963 63.852 59.1819C65.5917 61.9881 68.4326 66.3669 71.0196 69.4323C71.4899 69.9894 70.7388 70.741 70.1817 70.2707Z" fill="#EBEBEB"/>
</g>
<defs>
<clipPath id="clip0_247_103">
<rect width="76" height="76" fill="white" transform="translate(9 9)"/>
</clipPath>
</defs>
</svg>
