<svg width="94" height="94" viewBox="0 0 94 94" fill="none" xmlns="http://www.w3.org/2000/svg">
<rect x="1" y="1" width="92" height="92" rx="46" stroke="#EBEBEB" stroke-width="2"/>
<g clip-path="url(#clip0_247_89)">
<path d="M72.346 55.3437C71.8704 52.886 71.3099 50.4398 70.6651 48C69.5315 43.7106 68.1174 39.4186 65.7892 35.6105C63.4465 31.7787 60.1044 28.4489 55.9591 26.819C54.9974 26.4408 53.9267 26.157 52.9478 26.4931C51.3264 27.0497 50.6413 29.0123 50.3699 30.7479C50.1799 31.9631 50.087 33.1816 50.0576 34.4015C50.0378 35.224 50.4112 35.9981 51.0429 36.525C51.9898 37.3147 52.8024 38.2368 53.5266 39.2402C55.9549 38.9292 58.4073 39.28 60.5192 40.1355C61.9778 39.9255 64.2737 38.9791 64.7193 37.562C64.7855 37.3516 64.9931 37.2051 65.2103 37.2436C65.469 37.2895 65.6223 37.5478 65.5484 37.7917C65.0945 39.296 63.31 40.2693 61.7803 40.7286C63.5529 41.6868 64.9838 43.0308 65.7969 44.6461C65.8916 44.8344 65.8439 45.0733 65.673 45.1968C65.5934 45.2543 65.5053 45.2803 65.4184 45.2803C65.2608 45.2803 65.1089 45.1932 65.0336 45.043C63.3529 41.6907 58.7217 39.6149 54.0811 40.0486C55.0691 41.559 55.9028 43.206 56.7225 44.8327C57.242 45.8639 57.7557 46.8799 58.2984 47.8499C60.2918 49.7751 63.9148 50.5099 67.5428 49.7203C67.787 49.6661 68.0319 49.8358 68.0618 50.0924C68.0878 50.3156 67.9215 50.5188 67.7019 50.5662C66.6885 50.7849 65.6735 50.8911 64.6875 50.8911C62.7397 50.8911 60.906 50.4761 59.4244 49.6975C60.9601 51.9873 62.8512 53.8176 65.7249 54.6053C65.954 54.6678 66.0888 54.9047 66.0259 55.1335C65.9739 55.3247 65.8005 55.4501 65.6116 55.4501C65.574 55.4501 65.5357 55.4454 65.4977 55.4346C62.8992 54.7227 61.0405 53.2084 59.5515 51.3229C59.5315 51.9519 59.4828 52.5838 59.4309 53.2037C59.2433 55.4437 59.066 57.5601 60.3623 59.236C60.4966 59.4096 60.5081 59.6595 60.3578 59.8195C60.271 59.9119 60.1565 59.9563 60.0435 59.9563C59.9158 59.9563 59.7895 59.8999 59.7048 59.7917C58.1788 57.8457 58.3794 55.4494 58.5737 53.1317C58.6578 52.1272 58.7427 51.0902 58.6806 50.122C57.655 48.5896 56.7981 46.8946 55.9543 45.2198C55.6378 44.5917 55.3185 43.9608 54.9901 43.336C54.4599 45.2855 54.5189 47.2782 55.1732 49.3973C55.2236 49.5602 55.1884 49.7442 55.065 49.8618C54.975 49.9475 54.871 49.9814 54.7708 49.9814C54.5873 49.9814 54.4172 49.8635 54.3601 49.679C53.5537 47.0861 53.574 44.6632 54.4192 42.2788C53.3152 40.3007 52.0551 38.4548 50.3607 37.0809C49.3935 36.2967 48.8439 35.1088 48.8439 33.8636V20.8965H45.1832V33.8636C45.1832 35.1088 44.6336 36.2967 43.6664 37.0809C41.9721 38.4548 40.7119 40.3007 39.608 42.2788C40.4531 44.6632 40.4734 47.0861 39.667 49.679C39.6099 49.8635 39.4399 49.9814 39.2564 49.9814C39.1561 49.9814 39.0521 49.9475 38.9622 49.8618C38.8387 49.7442 38.8036 49.5602 38.8539 49.3973C39.5082 47.2782 39.5672 45.2855 39.037 43.336C38.7086 43.9608 38.3893 44.5917 38.0729 45.2198C37.2291 46.8946 36.3721 48.5895 35.3465 50.122C35.2844 51.0902 35.3694 52.1272 35.4535 53.1317C35.6477 55.4494 35.8483 57.8457 34.3224 59.7917C34.2377 59.8999 34.1113 59.9563 33.9836 59.9563C33.8706 59.9563 33.7562 59.9119 33.6693 59.8195C33.5191 59.6595 33.5305 59.4096 33.6648 59.236C34.9611 57.5601 34.7838 55.4437 34.5962 53.2037C34.5443 52.5838 34.4956 51.9519 34.4757 51.3229C32.9866 53.2084 31.1279 54.7227 28.5294 55.4346C28.4915 55.4454 28.4532 55.4501 28.4155 55.4501C28.2267 55.4501 28.0533 55.3247 28.0012 55.1335C27.9384 54.9047 28.0731 54.6678 28.3023 54.6053C31.1759 53.8176 33.067 51.9873 34.6027 49.6975C33.1211 50.4761 31.2875 50.8911 29.3396 50.8911C28.3537 50.8911 27.3386 50.7849 26.3253 50.5662C26.1056 50.5188 25.9393 50.3156 25.9653 50.0924C25.9953 49.8358 26.2402 49.6661 26.4843 49.7203C30.1123 50.5099 33.7353 49.7751 35.7288 47.8499C36.2715 46.8799 36.7852 45.8639 37.3047 44.8327C38.1243 43.206 38.958 41.559 39.946 40.0486C35.3054 39.6149 30.6742 41.6907 28.9935 45.043C28.9182 45.1932 28.7664 45.2803 28.6088 45.2803C28.5218 45.2803 28.4337 45.2543 28.3541 45.1968C28.1833 45.0733 28.1355 44.8344 28.2303 44.6461C29.0433 43.0308 30.4742 41.6868 32.2468 40.7286C30.7301 40.2732 28.9631 39.3126 28.4906 37.8302C28.4228 37.6173 28.5048 37.3729 28.7072 37.2784C28.951 37.1644 29.2275 37.2962 29.302 37.543C29.733 38.9707 32.0428 39.9246 33.5079 40.1355C35.6198 39.28 38.0723 38.9292 40.5005 39.2402C41.2247 38.2368 42.0373 37.3147 42.9841 36.525C43.6159 35.9981 43.9893 35.224 43.9695 34.4015C43.9401 33.1816 43.8473 31.9632 43.6572 30.7479C43.3858 29.0123 42.7007 27.0497 41.0793 26.4931C40.1004 26.157 39.0297 26.4408 38.068 26.8189C33.9227 28.4489 30.5806 31.7787 28.2379 35.6105C25.9097 39.4186 24.4956 43.7106 23.362 48C22.7173 50.4398 22.1568 52.886 21.6811 55.3437C21.6811 55.3437 20.2791 61.0576 20.2585 62.7449C20.2426 64.0433 20.4207 65.0869 21.3276 66.026C22.7043 67.4516 25.0104 67.2683 26.8931 66.7345C29.5807 65.9725 32.1367 64.7156 34.9062 64.2897C36.4604 64.0506 38.0716 64.075 39.5581 63.5613C41.8025 62.7856 43.5634 60.7289 43.9958 58.3701C44.3687 56.3359 43.8136 54.2571 43.5312 52.1941C42.9922 48.2571 43.4511 44.2379 43.7591 40.2024C44.5205 39.416 45.6075 38.5574 47.0135 38.1162C48.4196 38.5574 49.5066 39.416 50.268 40.2024C50.576 44.2378 51.0349 48.2571 50.496 52.1941C50.2136 54.2571 49.6584 56.3359 50.0313 58.3701C50.4637 60.7289 52.2246 62.7856 54.4691 63.5613C55.9555 64.075 57.5667 64.0506 59.1209 64.2897C61.8904 64.7156 64.4464 65.9725 67.1339 66.7345C69.0167 67.2683 71.3229 67.4516 72.6995 66.026C73.6064 65.0869 73.7844 64.0433 73.7686 62.7449C73.7481 61.0576 72.346 55.3437 72.346 55.3437Z" fill="white"/>
</g>
<defs>
<clipPath id="clip0_247_89">
<rect width="72" height="72" fill="white" transform="translate(11 8)"/>
</clipPath>
</defs>
</svg>
