<svg width="94" height="94" viewBox="0 0 94 94" fill="none" xmlns="http://www.w3.org/2000/svg">
<rect x="1" y="1" width="92" height="92" rx="46" stroke="#EBEBEB" stroke-width="2"/>
<path d="M39.5562 18.3804L37.9748 23.5382L41.3199 24.333L43.6812 22.2138L39.5564 18.3804H39.5562ZM54.8068 18.388L50.856 22.0623L53.3573 24.4237L56.4603 23.7689L54.8068 18.388ZM46.943 25.5816C45.2057 25.6086 43.4784 25.8501 41.8004 26.3006C30.5289 29.3207 23.8213 40.9393 26.8416 52.2108C27.7624 55.6475 29.4843 58.6588 31.7496 61.1001C31.7709 61.1306 31.7926 61.1604 31.814 61.1909L31.8254 61.1833C36.9924 66.6922 44.9519 69.255 52.748 67.166C64.0196 64.1458 70.7272 52.5312 67.7069 41.2597C65.2529 32.1013 57.1238 25.9589 48.1164 25.5968C47.7264 25.5811 47.3357 25.5755 46.943 25.5816ZM26.3498 25.998L27.5567 31.258L30.8526 30.2703L31.8365 27.2581L26.3498 25.9979V25.998ZM68.0096 26.0207L62.7457 27.228L63.7336 30.5239L66.7458 31.5077L68.0096 26.0207ZM47.3365 27.8371C47.5702 27.8376 47.8045 27.8431 48.0368 27.8522C56.0863 28.1683 63.323 33.6477 65.5197 41.8462C68.2234 51.9363 62.2554 62.2789 52.1653 64.9826C45.2283 66.8414 38.1736 64.5991 33.5622 59.7376L33.5586 59.734C32.6235 58.3761 31.8674 56.8919 31.3297 55.3367C28.3662 46.7655 32.6124 36.7249 41.3729 33.7215C48.7531 31.1915 57.3791 34.8144 59.9269 42.2889C62.0618 48.5525 58.9454 55.8855 52.5477 58.0462C47.2163 59.8466 40.9941 57.2153 39.1858 51.8249C37.6883 47.3614 39.9164 42.143 44.4684 40.6312C48.2119 39.388 52.5759 41.2408 53.8193 45.0134C54.7917 47.9654 53.4092 51.399 50.5344 52.5741C51.8389 51.3174 52.4452 49.4041 51.946 47.5414C51.3072 45.1576 49.0623 43.6105 46.6859 43.7495C46.3465 43.7694 46.0009 43.821 45.6602 43.9123C42.9363 44.6422 41.3052 47.4736 42.0352 50.1978C42.1177 50.5065 42.2292 50.8068 42.3682 51.0946C42.3708 51.1009 42.373 51.1074 42.3758 51.1136C42.3844 51.1311 42.3932 51.1487 42.4022 51.1664C43.8519 54.4006 47.4731 55.9647 50.8637 54.8597C55.2534 53.4291 57.3594 48.5265 55.9686 44.3057C54.308 39.2665 48.6325 36.8613 43.7532 38.4818C37.9461 40.4105 35.1592 46.9402 37.0402 52.5476C39.2716 59.199 46.8064 62.3723 53.2743 60.1879C60.9218 57.6052 64.5937 48.9665 62.0688 41.5583C59.651 34.4651 52.6374 30.3826 45.5244 30.6675C43.8603 30.7333 42.2147 31.0404 40.6389 31.5793C33.8401 33.9104 29.4472 39.8985 28.3818 46.5459C28.4547 38.2694 33.9953 30.7364 42.3871 28.4878C44.0424 28.0443 45.7026 27.8337 47.3368 27.8369L47.3365 27.8371ZM24.0981 37.5473L18.717 39.1972L22.3914 43.1517L24.7528 40.6502L24.0983 37.5472L24.0981 37.5473ZM70.4657 37.6457L69.6713 40.9909L71.7904 43.3522L75.6274 39.2274L70.4657 37.6457ZM47.0758 46.0011C48.3142 46.031 49.4197 46.8621 49.7588 48.1279C50.1723 49.6706 49.2768 51.2262 47.7344 51.6396C46.3846 52.0012 45.0235 51.3599 44.427 50.1598C44.3695 50.0221 44.3178 49.882 44.272 49.7399L44.2567 49.7435C44.2431 49.6998 44.2304 49.6557 44.2188 49.6113C43.8057 48.0686 44.7048 46.5129 46.2472 46.0996C46.4366 46.0489 46.6305 46.0172 46.8262 46.0049C46.9098 45.9998 46.9933 45.9993 47.076 46.0012L47.0758 46.0011ZM22.5426 50.3266L18.7095 54.4474L23.8673 56.033L24.6617 52.684L22.5426 50.3264V50.3266ZM71.9416 50.527L69.5802 53.0283L70.2347 56.1315L75.6159 54.4778L71.9414 50.5271L71.9416 50.527ZM27.5869 62.1671L26.3268 67.658L31.5871 66.4507L30.5993 63.1548L27.5869 62.1671ZM66.7758 62.4207L63.4799 63.4046L62.4999 66.4204L67.987 67.6805L66.7761 62.4207H66.7758ZM40.9792 69.2511L37.8761 69.9058L39.526 75.2869L43.4805 71.6125L40.9792 69.2511ZM53.0128 69.3419L50.6515 71.4611L54.7763 75.2983L56.3616 70.1367L53.0128 69.3419Z" fill="white"/>
</svg>
