<svg width="94" height="94" viewBox="0 0 94 94" fill="none" xmlns="http://www.w3.org/2000/svg">
<rect x="1" y="1" width="92" height="92" rx="46" stroke="#EBEBEB" stroke-width="2"/>
<path fill-rule="evenodd" clip-rule="evenodd" d="M50.4898 38.9294C48.7123 38.1833 46.7381 38.0452 44.874 38.5364C43.0098 39.0276 41.3601 40.1207 40.181 41.6458C39.0019 43.1709 38.3595 45.0427 38.3536 46.9705C38.3476 48.8982 38.9784 50.774 40.148 52.3064C41.3176 53.8388 42.9606 54.942 44.8216 55.4448C46.6827 55.9475 48.6577 55.8216 50.4398 55.0866C52.2219 54.3515 53.7114 53.0485 54.6769 51.38C55.6425 49.7114 56.0299 47.7708 55.7792 45.8594C56.5886 45.1224 57.0923 44.1088 57.1909 43.0185C57.2895 41.9283 56.9758 40.8408 56.3118 39.9705C55.6477 39.1003 54.6816 38.5106 53.604 38.3178C52.5265 38.1251 51.4143 38.3433 50.4898 38.9294ZM47.1021 52.8331C46.2712 52.8319 45.4502 52.6532 44.6941 52.3089C43.9379 51.9647 43.2639 51.4629 42.7174 50.8371C42.1708 50.2114 41.7643 49.4761 41.5249 48.6804C41.2855 47.8848 41.2189 47.0473 41.3294 46.2238C41.4399 45.4003 41.7251 44.61 42.1658 43.9056C42.6065 43.2013 43.1926 42.5992 43.8848 42.1397C44.577 41.6802 45.3594 41.3739 46.1796 41.2413C46.9998 41.1086 47.8389 41.1527 48.6406 41.3706C47.8341 41.3898 47.0486 41.6315 46.3709 42.0692C45.6932 42.5069 45.1497 43.1234 44.8005 43.8506C44.4513 44.5779 44.31 45.3875 44.3922 46.19C44.4743 46.9926 44.7768 47.7568 45.2662 48.3981C45.7555 49.0395 46.4126 49.5331 47.165 49.8244C47.9173 50.1156 48.7355 50.1931 49.5292 50.0484C50.3228 49.9037 51.061 49.5424 51.6621 49.0044C52.2633 48.4664 52.7039 47.7726 52.9354 46.9998C52.9354 48.5469 52.3208 50.0306 51.2269 51.1246C50.1329 52.2185 48.6492 52.8331 47.1021 52.8331ZM54.2917 42.6248C54.2917 43.0116 54.138 43.3825 53.8645 43.656C53.591 43.9295 53.2201 44.0831 52.8333 44.0831C52.4466 44.0831 52.0756 43.9295 51.8021 43.656C51.5287 43.3825 51.375 43.0116 51.375 42.6248C51.375 42.238 51.5287 41.8671 51.8021 41.5936C52.0756 41.3201 52.4466 41.1665 52.8333 41.1665C53.2201 41.1665 53.591 41.3201 53.8645 41.5936C54.138 41.8671 54.2917 42.238 54.2917 42.6248Z" fill="white"/>
<path fill-rule="evenodd" clip-rule="evenodd" d="M19.5779 42.4267C24.5479 36.8004 33.9935 29.6356 46.7408 29.5015L47.0004 29.5H47.1024C60.032 29.5 69.6089 36.7479 74.6256 42.4267C75.7487 43.6853 76.3694 45.3131 76.3694 47C76.3694 48.6869 75.7487 50.3147 74.6256 51.5733C69.6089 57.2521 60.032 64.5 47.1024 64.5H47.0004L46.7408 64.4985C33.9949 64.3644 24.5479 57.1996 19.5779 51.5733C18.4547 50.3147 17.834 48.6869 17.834 47C17.834 45.3131 18.4547 43.6853 19.5779 42.4267ZM21.7639 44.3575C21.1115 45.083 20.7506 46.0243 20.7506 47C20.7506 47.9757 21.1115 48.917 21.7639 49.6425C24.5041 52.7444 28.6618 56.2969 34.0008 58.7163C31.0988 55.5046 29.4947 51.3286 29.5004 47C29.5004 42.4938 31.2037 38.3856 34.0008 35.2837C28.6633 37.7031 24.5041 41.2556 21.7639 44.3575ZM47.0412 32.4167L46.7772 32.4181C38.8249 32.5377 32.417 39.02 32.417 47C32.417 54.98 38.8264 61.4623 46.7772 61.5819L47.0412 61.5833C55.0766 61.5615 61.5837 55.0398 61.5837 47C61.5837 38.9602 55.0766 32.4385 47.0412 32.4167ZM64.5004 47C64.5004 51.5792 62.7402 55.75 59.8599 58.8694C65.3637 56.4485 69.641 52.81 72.4395 49.6425C73.0919 48.917 73.4529 47.9757 73.4529 47C73.4529 46.0243 73.0919 45.083 72.4395 44.3575C69.641 41.19 65.3637 37.5515 59.8599 35.1306C62.8486 38.3601 64.5061 42.5998 64.5004 47Z" fill="white"/>
</svg>
