<svg width="22" height="25" viewBox="0 0 22 25" fill="none" xmlns="http://www.w3.org/2000/svg">
<path d="M10 10.2365C8.59002 9.81615 7.08343 9.85074 5.69423 10.3354C4.30504 10.82 3.10387 11.7301 2.26134 12.9363C1.41881 14.1425 0.977772 15.5835 1.00086 17.0546C1.02395 18.5257 1.51 19.9522 2.38997 21.1313C3.26994 22.3105 4.49908 23.1824 5.9028 23.6232C7.30652 24.064 8.81345 24.0513 10.2095 23.5869C11.6056 23.1224 12.8199 22.2299 13.6798 21.0361C14.5398 19.8423 15.0017 18.4078 15 16.9365V9.93652C16.3333 11.2699 18.3333 11.9365 21 11.9365V6.93652C18.3333 6.93652 16.3333 5.26986 15 1.93652H10V16.9365M10 16.9365C10 16.541 9.8827 16.1543 9.66293 15.8254C9.44317 15.4965 9.13081 15.2401 8.76536 15.0888C8.39991 14.9374 7.99778 14.8978 7.60982 14.975C7.22185 15.0521 6.86549 15.2426 6.58578 15.5223C6.30608 15.802 6.1156 16.1584 6.03842 16.5463C5.96125 16.9343 6.00086 17.3364 6.15224 17.7019C6.30361 18.0673 6.55996 18.3797 6.88886 18.5995C7.21775 18.8192 7.60443 18.9365 8 18.9365C8.53043 18.9365 9.03914 18.7258 9.41421 18.3507C9.78928 17.9757 10 17.467 10 16.9365Z" stroke="#EBEBEB" stroke-width="2" stroke-linecap="round" stroke-linejoin="round"/>
</svg>
